<svg width="191" height="83" viewBox="0 0 191 83" fill="none" xmlns="http://www.w3.org/2000/svg">
<path d="M11.5029 28V1.036H11.5389L24.4269 19.36L37.5309 1.036H37.6029V28H33.8589V11.8L24.4269 25.192H24.3549L15.1389 12.376V28H11.5029ZM42.8117 20.332C42.8117 18.82 43.1717 17.464 43.8917 16.264C44.6117 15.04 45.6077 14.08 46.8797 13.384C48.1517 12.688 49.6037 12.34 51.2357 12.34C52.8917 12.34 54.3317 12.688 55.5557 13.384C56.8037 14.08 57.7637 15.04 58.4357 16.264C59.1317 17.464 59.4797 18.82 59.4797 20.332C59.4797 21.844 59.1317 23.212 58.4357 24.436C57.7397 25.636 56.7677 26.596 55.5197 27.316C54.2957 28.012 52.8437 28.36 51.1637 28.36C49.5797 28.36 48.1517 28.036 46.8797 27.388C45.6317 26.74 44.6357 25.816 43.8917 24.616C43.1717 23.392 42.8117 21.964 42.8117 20.332ZM46.4837 20.368C46.4837 21.304 46.6877 22.156 47.0957 22.924C47.5037 23.668 48.0557 24.268 48.7517 24.724C49.4717 25.156 50.2637 25.372 51.1277 25.372C52.4957 25.372 53.6117 24.892 54.4757 23.932C55.3637 22.972 55.8077 21.784 55.8077 20.368C55.8077 18.952 55.3637 17.764 54.4757 16.804C53.6117 15.82 52.4957 15.328 51.1277 15.328C50.2397 15.328 49.4477 15.556 48.7517 16.012C48.0557 16.468 47.5037 17.08 47.0957 17.848C46.6877 18.616 46.4837 19.456 46.4837 20.368ZM67.1415 12.952L67.3935 15.76C67.8975 14.728 68.6775 13.912 69.7335 13.312C70.7895 12.688 72.0135 12.376 73.4055 12.376C74.8215 12.376 75.9855 12.796 76.8975 13.636C77.8095 14.452 78.2775 15.532 78.3015 16.876V28H74.6655V18.136C74.6415 17.368 74.4135 16.744 73.9815 16.264C73.5495 15.76 72.8775 15.496 71.9655 15.472C70.6935 15.472 69.6255 16 68.7615 17.056C67.9215 18.112 67.5015 19.468 67.5015 21.124V28H63.8655V12.952H67.1415ZM84.01 12.952H87.646V28H84.01V12.952ZM83.83 7.552C83.83 7 84.046 6.532 84.478 6.148C84.934 5.764 85.426 5.572 85.954 5.572C86.482 5.572 86.962 5.764 87.394 6.148C87.826 6.532 88.042 7 88.042 7.552C88.042 8.152 87.826 8.632 87.394 8.992C86.962 9.352 86.482 9.532 85.954 9.532C85.426 9.532 84.934 9.352 84.478 8.992C84.046 8.632 83.83 8.152 83.83 7.552ZM94.7664 6.364H98.4384V12.988H102.47V15.832H98.4384V28H94.7664V15.832H92.1024V12.988H94.7664V6.364ZM105.179 20.332C105.179 18.82 105.539 17.464 106.259 16.264C106.979 15.04 107.975 14.08 109.247 13.384C110.519 12.688 111.971 12.34 113.603 12.34C115.259 12.34 116.699 12.688 117.923 13.384C119.171 14.08 120.131 15.04 120.803 16.264C121.499 17.464 121.847 18.82 121.847 20.332C121.847 21.844 121.499 23.212 120.803 24.436C120.107 25.636 119.135 26.596 117.887 27.316C116.663 28.012 115.211 28.36 113.531 28.36C111.947 28.36 110.519 28.036 109.247 27.388C107.999 26.74 107.003 25.816 106.259 24.616C105.539 23.392 105.179 21.964 105.179 20.332ZM108.851 20.368C108.851 21.304 109.055 22.156 109.463 22.924C109.871 23.668 110.423 24.268 111.119 24.724C111.839 25.156 112.631 25.372 113.495 25.372C114.863 25.372 115.979 24.892 116.843 23.932C117.731 22.972 118.175 21.784 118.175 20.368C118.175 18.952 117.731 17.764 116.843 16.804C115.979 15.82 114.863 15.328 113.495 15.328C112.607 15.328 111.815 15.556 111.119 16.012C110.423 16.468 109.871 17.08 109.463 17.848C109.055 18.616 108.851 19.456 108.851 20.368ZM129.473 12.952L129.761 16.516C130.193 15.652 130.769 14.908 131.489 14.284C132.209 13.66 132.953 13.18 133.721 12.844C134.513 12.508 135.185 12.34 135.737 12.34L135.557 15.94C134.429 15.868 133.433 16.084 132.569 16.588C131.729 17.092 131.069 17.764 130.589 18.604C130.109 19.444 129.869 20.344 129.869 21.304V28H126.233V12.952H129.473ZM150.775 28.36C149.359 28.36 148.087 28.036 146.959 27.388C145.831 26.716 144.943 25.768 144.295 24.544C143.647 23.32 143.323 21.892 143.323 20.26C143.323 18.58 143.671 17.152 144.367 15.976C145.063 14.8 145.999 13.9 147.175 13.276C148.375 12.652 149.719 12.34 151.207 12.34C152.311 12.34 153.367 12.556 154.375 12.988C155.407 13.42 156.223 14.032 156.823 14.824V0.0279996H160.459V28H156.787V25.804C156.067 26.548 155.191 27.16 154.159 27.64C153.151 28.12 152.023 28.36 150.775 28.36ZM151.891 25.3C153.163 25.3 154.219 24.976 155.059 24.328C155.923 23.656 156.499 22.768 156.787 21.664V18.676C156.523 17.668 155.935 16.84 155.023 16.192C154.135 15.544 153.091 15.22 151.891 15.22C151.027 15.22 150.223 15.436 149.479 15.868C148.735 16.276 148.135 16.864 147.679 17.632C147.247 18.376 147.031 19.24 147.031 20.224C147.031 21.16 147.247 22.012 147.679 22.78C148.135 23.548 148.735 24.16 149.479 24.616C150.223 25.072 151.027 25.3 151.891 25.3ZM173.191 28.36C171.463 28.36 169.975 28.024 168.727 27.352C167.479 26.656 166.519 25.708 165.847 24.508C165.175 23.284 164.839 21.904 164.839 20.368C164.839 18.88 165.211 17.536 165.955 16.336C166.723 15.112 167.743 14.14 169.015 13.42C170.287 12.7 171.703 12.34 173.263 12.34C175.279 12.34 176.947 12.928 178.267 14.104C179.611 15.256 180.511 16.888 180.967 19L169.195 23.068C169.627 23.764 170.191 24.304 170.887 24.688C171.607 25.072 172.399 25.264 173.263 25.264C173.911 25.264 174.535 25.156 175.135 24.94C175.735 24.7 176.299 24.388 176.827 24.004L178.483 26.704C177.715 27.208 176.863 27.616 175.927 27.928C175.015 28.216 174.103 28.36 173.191 28.36ZM168.475 20.908L176.863 17.848C176.551 17.152 176.083 16.54 175.459 16.012C174.859 15.484 174.043 15.22 173.011 15.22C171.667 15.22 170.563 15.688 169.699 16.624C168.859 17.536 168.439 18.712 168.439 20.152C168.439 20.416 168.451 20.668 168.475 20.908ZM0.918219 66.952H4.55422V82H0.918219V66.952ZM0.738219 61.552C0.738219 61 0.954219 60.532 1.38622 60.148C1.84222 59.764 2.33422 59.572 2.86222 59.572C3.39022 59.572 3.87022 59.764 4.30222 60.148C4.73422 60.532 4.95022 61 4.95022 61.552C4.95022 62.152 4.73422 62.632 4.30222 62.992C3.87022 63.352 3.39022 63.532 2.86222 63.532C2.33422 63.532 1.84222 63.352 1.38622 62.992C0.954219 62.632 0.738219 62.152 0.738219 61.552ZM13.5106 66.952L13.7626 69.76C14.2666 68.728 15.0466 67.912 16.1026 67.312C17.1586 66.688 18.3826 66.376 19.7746 66.376C21.1906 66.376 22.3546 66.796 23.2666 67.636C24.1786 68.452 24.6466 69.532 24.6706 70.876V82H21.0346V72.136C21.0106 71.368 20.7826 70.744 20.3506 70.264C19.9186 69.76 19.2466 69.496 18.3346 69.472C17.0626 69.472 15.9946 70 15.1306 71.056C14.2906 72.112 13.8706 73.468 13.8706 75.124V82H10.2346V66.952H13.5106ZM36.1158 82.432L27.6558 66.952H31.9398L36.3318 76.168L40.3638 66.952H44.3958L36.2958 82.432H36.1158ZM54.5211 82.36C52.7931 82.36 51.3051 82.024 50.0571 81.352C48.8091 80.656 47.8491 79.708 47.1771 78.508C46.5051 77.284 46.1691 75.904 46.1691 74.368C46.1691 72.88 46.5411 71.536 47.2851 70.336C48.0531 69.112 49.0731 68.14 50.3451 67.42C51.6171 66.7 53.0331 66.34 54.5931 66.34C56.6091 66.34 58.2771 66.928 59.5971 68.104C60.9411 69.256 61.8411 70.888 62.2971 73L50.5251 77.068C50.9571 77.764 51.5211 78.304 52.2171 78.688C52.9371 79.072 53.7291 79.264 54.5931 79.264C55.2411 79.264 55.8651 79.156 56.4651 78.94C57.0651 78.7 57.6291 78.388 58.1571 78.004L59.8131 80.704C59.0451 81.208 58.1931 81.616 57.2571 81.928C56.3451 82.216 55.4331 82.36 54.5211 82.36ZM49.8051 74.908L58.1931 71.848C57.8811 71.152 57.4131 70.54 56.7891 70.012C56.1891 69.484 55.3731 69.22 54.3411 69.22C52.9971 69.22 51.8931 69.688 51.0291 70.624C50.1891 71.536 49.7691 72.712 49.7691 74.152C49.7691 74.416 49.7811 74.668 49.8051 74.908ZM69.6192 66.952L69.9072 70.516C70.3392 69.652 70.9152 68.908 71.6352 68.284C72.3552 67.66 73.0992 67.18 73.8672 66.844C74.6592 66.508 75.3312 66.34 75.8832 66.34L75.7032 69.94C74.5752 69.868 73.5792 70.084 72.7152 70.588C71.8752 71.092 71.2152 71.764 70.7352 72.604C70.2552 73.444 70.0152 74.344 70.0152 75.304V82H66.3792V66.952H69.6192ZM83.3661 66.952L83.6181 69.76C84.1221 68.728 84.9021 67.912 85.9581 67.312C87.0141 66.688 88.2381 66.376 89.6301 66.376C91.0461 66.376 92.2101 66.796 93.1221 67.636C94.0341 68.452 94.5021 69.532 94.5261 70.876V82H90.8901V72.136C90.8661 71.368 90.6381 70.744 90.2061 70.264C89.7741 69.76 89.1021 69.496 88.1901 69.472C86.9181 69.472 85.8501 70 84.9861 71.056C84.1461 72.112 83.7261 73.468 83.7261 75.124V82H80.0901V66.952H83.3661ZM106.535 82.36C105.119 82.36 103.835 82.06 102.683 81.46C101.531 80.86 100.619 79.984 99.9466 78.832C99.2746 77.656 98.9386 76.204 98.9386 74.476C98.9386 72.796 99.2866 71.356 99.9826 70.156C100.703 68.932 101.639 67.996 102.791 67.348C103.967 66.676 105.239 66.34 106.607 66.34C107.999 66.34 109.151 66.628 110.063 67.204C110.975 67.756 111.695 68.428 112.223 69.22L112.475 66.952H115.823V82H112.187V79.624C111.923 79.96 111.527 80.344 110.999 80.776C110.471 81.208 109.835 81.58 109.091 81.892C108.347 82.204 107.495 82.36 106.535 82.36ZM107.507 79.372C108.707 79.372 109.715 79.06 110.531 78.436C111.371 77.788 111.923 76.912 112.187 75.808V72.712C111.899 71.728 111.311 70.912 110.423 70.264C109.559 69.616 108.551 69.292 107.399 69.292C106.535 69.292 105.743 69.508 105.023 69.94C104.303 70.348 103.727 70.936 103.295 71.704C102.863 72.448 102.647 73.312 102.647 74.296C102.647 75.256 102.863 76.12 103.295 76.888C103.751 77.656 104.351 78.268 105.095 78.724C105.839 79.156 106.643 79.372 107.507 79.372ZM127.66 82.36C126.244 82.36 124.972 82.036 123.844 81.388C122.716 80.716 121.828 79.768 121.18 78.544C120.532 77.32 120.208 75.892 120.208 74.26C120.208 72.58 120.556 71.152 121.252 69.976C121.948 68.8 122.884 67.9 124.06 67.276C125.26 66.652 126.604 66.34 128.092 66.34C129.196 66.34 130.252 66.556 131.26 66.988C132.292 67.42 133.108 68.032 133.708 68.824V54.028H137.344V82H133.672V79.804C132.952 80.548 132.076 81.16 131.044 81.64C130.036 82.12 128.908 82.36 127.66 82.36ZM128.776 79.3C130.048 79.3 131.104 78.976 131.944 78.328C132.808 77.656 133.384 76.768 133.672 75.664V72.676C133.408 71.668 132.82 70.84 131.908 70.192C131.02 69.544 129.976 69.22 128.776 69.22C127.912 69.22 127.108 69.436 126.364 69.868C125.62 70.276 125.02 70.864 124.564 71.632C124.132 72.376 123.916 73.24 123.916 74.224C123.916 75.16 124.132 76.012 124.564 76.78C125.02 77.548 125.62 78.16 126.364 78.616C127.108 79.072 127.912 79.3 128.776 79.3ZM150.076 82.36C148.348 82.36 146.86 82.024 145.612 81.352C144.364 80.656 143.404 79.708 142.732 78.508C142.06 77.284 141.724 75.904 141.724 74.368C141.724 72.88 142.096 71.536 142.84 70.336C143.608 69.112 144.628 68.14 145.9 67.42C147.172 66.7 148.588 66.34 150.148 66.34C152.164 66.34 153.832 66.928 155.152 68.104C156.496 69.256 157.396 70.888 157.852 73L146.08 77.068C146.512 77.764 147.076 78.304 147.772 78.688C148.492 79.072 149.284 79.264 150.148 79.264C150.796 79.264 151.42 79.156 152.02 78.94C152.62 78.7 153.184 78.388 153.712 78.004L155.368 80.704C154.6 81.208 153.748 81.616 152.812 81.928C151.9 82.216 150.988 82.36 150.076 82.36ZM145.36 74.908L153.748 71.848C153.436 71.152 152.968 70.54 152.344 70.012C151.744 69.484 150.928 69.22 149.896 69.22C148.552 69.22 147.448 69.688 146.584 70.624C145.744 71.536 145.324 72.712 145.324 74.152C145.324 74.416 145.336 74.668 145.36 74.908ZM165.174 66.952L165.462 70.516C165.894 69.652 166.47 68.908 167.19 68.284C167.91 67.66 168.654 67.18 169.422 66.844C170.214 66.508 170.886 66.34 171.438 66.34L171.258 69.94C170.13 69.868 169.134 70.084 168.27 70.588C167.43 71.092 166.77 71.764 166.29 72.604C165.81 73.444 165.57 74.344 165.57 75.304V82H161.934V66.952H165.174ZM173.716 74.332C173.716 72.82 174.076 71.464 174.796 70.264C175.516 69.04 176.512 68.08 177.784 67.384C179.056 66.688 180.508 66.34 182.14 66.34C183.796 66.34 185.236 66.688 186.46 67.384C187.708 68.08 188.668 69.04 189.34 70.264C190.036 71.464 190.384 72.82 190.384 74.332C190.384 75.844 190.036 77.212 189.34 78.436C188.644 79.636 187.672 80.596 186.424 81.316C185.2 82.012 183.748 82.36 182.068 82.36C180.484 82.36 179.056 82.036 177.784 81.388C176.536 80.74 175.54 79.816 174.796 78.616C174.076 77.392 173.716 75.964 173.716 74.332ZM177.388 74.368C177.388 75.304 177.592 76.156 178 76.924C178.408 77.668 178.96 78.268 179.656 78.724C180.376 79.156 181.168 79.372 182.032 79.372C183.4 79.372 184.516 78.892 185.38 77.932C186.268 76.972 186.712 75.784 186.712 74.368C186.712 72.952 186.268 71.764 185.38 70.804C184.516 69.82 183.4 69.328 182.032 69.328C181.144 69.328 180.352 69.556 179.656 70.012C178.96 70.468 178.408 71.08 178 71.848C177.592 72.616 177.388 73.456 177.388 74.368Z" fill="#E2ADF2"/>
</svg>
